
// Musica roda em paralelo
// Timer1 a 20 ms → atualiza música do Tetris (uma nota por vez)

#include <Arduino.h>
#include "musica.h"
#include "biblioteca.h"

// Frequências das notas (em Hz)
#define NOTE_A4  440
#define NOTE_B4  494
#define NOTE_C5  523
#define NOTE_D5  587
#define NOTE_E5  659
#define NOTE_F5  698
#define NOTE_G5  784
#define NOTE_A5  880
#define NOTE_GS4 415
#define NOTE_GS5 831
#define REST     0


// Melodia do Tetris 
int melody[] = {
  NOTE_E5, NOTE_B4, NOTE_C5, NOTE_D5, NOTE_C5, NOTE_B4,
  NOTE_A4, NOTE_A4, NOTE_C5, NOTE_E5, NOTE_D5, NOTE_C5,
  NOTE_B4, NOTE_C5, NOTE_D5, NOTE_E5,
  NOTE_C5, NOTE_A4, NOTE_A4, NOTE_A4, NOTE_B4, NOTE_C5,
  
  NOTE_D5, NOTE_F5, NOTE_A5, NOTE_G5, NOTE_F5,
  NOTE_E5, NOTE_C5, NOTE_E5, NOTE_D5, NOTE_C5,
  NOTE_B4, NOTE_B4, NOTE_C5, NOTE_D5, NOTE_E5,
  NOTE_C5, NOTE_A4, NOTE_A4, REST, 
  
  NOTE_E5, NOTE_B4, NOTE_C5, NOTE_D5, NOTE_C5, NOTE_B4,
  NOTE_A4, NOTE_A4, NOTE_C5, NOTE_E5, NOTE_D5, NOTE_C5,
  NOTE_B4, NOTE_C5, NOTE_D5, NOTE_E5,
  NOTE_C5, NOTE_A4, NOTE_A4, NOTE_A4, NOTE_B4, NOTE_C5,
  
  NOTE_D5, NOTE_F5, NOTE_A5, NOTE_G5, NOTE_F5,
  NOTE_E5, NOTE_C5, NOTE_E5, NOTE_D5, NOTE_C5,
  NOTE_B4, NOTE_B4, NOTE_C5, NOTE_D5, NOTE_E5,
  NOTE_C5, NOTE_A4, NOTE_A4, REST, 
  
  NOTE_E5, NOTE_C5,
  NOTE_D5, NOTE_B4,
  NOTE_C5, NOTE_A4,
  NOTE_GS4, NOTE_B4, REST, 
  NOTE_E5, NOTE_C5,
  NOTE_D5, NOTE_B4,
  NOTE_C5, NOTE_E5, NOTE_A5,
  NOTE_GS5
};

// Duração de cada nota (4 = semínima, 8 = colcheia, etc.)
int durations[] = {
  4, 8, 8, 4, 8, 8,
  4, 8, 8, 4, 8, 8,
  4, 8, 4, 4,
  4, 4, 8, 4, 8, 8,
  
  4, 8, 4, 8, 8,
  4, 8, 4, 8, 8,
  4, 8, 8, 4, 4,
  4, 4, 4, 4,
  
  4, 8, 8, 4, 8, 8,
  4, 8, 8, 4, 8, 8,
  4, 8, 4, 4,
  4, 4, 8, 4, 8, 8,
  
  4, 8, 4, 8, 8,
  4, 8, 4, 8, 8,
  4, 8, 8, 4, 4,
  4, 4, 4, 4,
  
  2, 2,
  2, 2,
  2, 2,
  2, 4, 8, 
  2, 2,
  2, 2,
  4, 4, 2,
  2
};

const int notas = sizeof(melody) / sizeof(melody[0]);

volatile int notaAtual = 0;
volatile int espera = 0;  

void atualizar_musica() {        // executa a cada 20 ms
  if (espera > 0) {
    espera--;                   // espera mais um tick de 20ms
    return;
  }

  if (notaAtual < notas) {  
    int duracao = 1000 / durations[notaAtual]*1.5;  // duração real em ms da nota
    tone(buzzer_pin, melody[notaAtual]);           // toca a nota (sem bloquear)
    espera = (duracao * 1) / 20 ;                   // converte duração em unidades de 20ms
    notaAtual++;
  } else {            // música terminou → para o buzzer ou reinicia
    noTone(buzzer_pin);
    notaAtual = 0;  // reinicia a música
  }
}






